HIERARCHY
ROOT Hips
{
	OFFSET -0.001795 -0.223333 0.028219
	CHANNELS 6 Xposition Yposition Zposition Zrotation Yrotation Xrotation 
	JOINT LeftUpLeg
	{
		OFFSET 0.069520 -0.091406 -0.006815
		CHANNELS 3 Zrotation Yrotation Xrotation
		JOINT LeftLeg
		{
			OFFSET 0.034277 -0.375199 -0.004496
			CHANNELS 3 Zrotation Yrotation Xrotation
			JOINT LeftFoot
			{
				OFFSET -0.013596 -0.397961 -0.043693
				CHANNELS 3 Zrotation Yrotation Xrotation
				JOINT LeftToe
				{
					OFFSET 0.026358 -0.055791 0.119288
					CHANNELS 3 Zrotation Yrotation Xrotation
					End Site
					{
						OFFSET 0.000000 0.000000 0.000000
					}
				}
			}
		}
	}
	JOINT RightUpLeg
	{
		OFFSET -0.067670 -0.090522 -0.004320
		CHANNELS 3 Zrotation Yrotation Xrotation
		JOINT RightLeg
		{
			OFFSET -0.038290 -0.382569 -0.008850
			CHANNELS 3 Zrotation Yrotation Xrotation
			JOINT RightFoot
			{
				OFFSET 0.015774 -0.398415 -0.042312
				CHANNELS 3 Zrotation Yrotation Xrotation
				JOINT RightToe
				{
					OFFSET -0.025372 -0.048144 0.123348
					CHANNELS 3 Zrotation Yrotation Xrotation
					End Site
					{
						OFFSET 0.000000 0.000000 0.000000
					}
				}
			}
		}
	}
	JOINT Spine
	{
		OFFSET -0.002533 0.108963 -0.026696
		CHANNELS 3 Zrotation Yrotation Xrotation
		JOINT Spine1
		{
			OFFSET 0.005487 0.135180 0.001092
			CHANNELS 3 Zrotation Yrotation Xrotation
			JOINT Spine2
			{
				OFFSET 0.001457 0.052922 0.025425
				CHANNELS 3 Zrotation Yrotation Xrotation
				JOINT Neck
				{
					OFFSET -0.002778 0.213870 -0.042857
					CHANNELS 3 Zrotation Yrotation Xrotation
					JOINT Head
					{
						OFFSET 0.005152 0.064970 0.051349
						CHANNELS 3 Zrotation Yrotation Xrotation
						End Site
						{
							OFFSET 0.000000 0.000000 0.000000
						}
					}
				}
				JOINT LeftShoulder
				{
					OFFSET 0.078845 0.121749 -0.034090
					CHANNELS 3 Zrotation Yrotation Xrotation
					JOINT LeftArm
					{
						OFFSET 0.090977 0.030469 -0.008868
						CHANNELS 3 Zrotation Yrotation Xrotation
						JOINT LeftForeArm
						{
							OFFSET 0.259612 -0.012772 -0.027456
							CHANNELS 3 Zrotation Yrotation Xrotation
							JOINT LeftHand
							{
								OFFSET 0.249234 0.008986 -0.001171
								CHANNELS 3 Zrotation Yrotation Xrotation
								End Site
								{
									OFFSET 0.000000 0.000000 0.000000
								}
							}
						}
					}
				}
				JOINT RightShoulder
				{
					OFFSET -0.081759 0.118833 -0.038615
					CHANNELS 3 Zrotation Yrotation Xrotation
					JOINT RightArm
					{
						OFFSET -0.096012 0.032551 -0.009143
						CHANNELS 3 Zrotation Yrotation Xrotation
						JOINT RightForeArm
						{
							OFFSET -0.253742 -0.013329 -0.021401
							CHANNELS 3 Zrotation Yrotation Xrotation
							JOINT RightHand
							{
								OFFSET -0.255298 0.007772 -0.005559
								CHANNELS 3 Zrotation Yrotation Xrotation
								End Site
								{
									OFFSET 0.000000 0.000000 0.000000
								}
							}
						}
					}
				}
			}
		}
	}
}
MOTION
Frames: 11
Frame Time: 0.050000
0.000000 0.880823 0.000000 -1.541110 9.743198 -2.836954 -6.433765 -0.866125 -6.481021 1.177650 -2.988123 33.548377 6.111340 4.869500 -17.466548 0.000000 0.000000 0.000000 -4.046773 1.177583 -29.784275 4.578037 -5.534419 72.117766 -3.744010 -10.059472 3.489349 0.000000 0.000000 0.000000 1.953723 -0.928486 13.311022 2.255328 -0.780371 -3.905225 -2.684051 -4.705395 12.608026 1.616724 0.967131 -26.216813 0.000000 0.000000 0.000000 -16.135855 -2.984684 0.004789 -51.404420 -22.207916 2.630295 -171.734846 -58.454452 174.018759 0.000000 0.000000 0.000000 11.005461 -7.055600 -3.944815 59.208456 -10.530263 -11.656923 117.191706 60.462192 92.538183 0.000000 0.000000 0.000000 
0.001294 0.908361 -0.007330 -3.248702 12.030582 -1.503041 -2.621871 0.181489 1.175550 2.011114 -2.522902 25.703452 4.002776 1.011155 -12.690042 0.000000 0.000000 0.000000 -2.749776 1.354822 -33.084762 6.269172 -6.715816 62.628044 -5.982627 -14.738646 2.271314 0.000000 0.000000 0.000000 4.274245 -0.888095 9.682265 2.418624 -0.957934 -2.323114 -2.479325 -11.435978 12.712144 0.506853 0.942752 -28.736491 0.000000 0.000000 0.000000 -11.805982 1.191556 -0.805358 -58.095837 -28.110223 6.735303 -176.558585 -57.842103 -172.586091 0.000000 0.000000 0.000000 6.886361 -8.848225 -4.512449 59.252372 -17.721562 -15.653273 117.824208 48.240948 73.771440 0.000000 0.000000 0.000000 
0.001257 0.943739 -0.012338 -3.688350 10.044009 -0.458754 -2.146972 0.599048 5.782570 3.538084 -2.335716 21.363213 0.100319 -0.576231 -1.285376 0.000000 0.000000 0.000000 -1.040959 2.134315 -34.929706 7.048197 -4.304176 46.040110 -5.769159 -14.221353 2.383919 0.000000 0.000000 0.000000 4.514533 -0.695477 7.454955 4.033321 -1.614691 -3.393567 -3.917037 -13.815314 14.455986 -0.455321 0.891665 -27.989442 0.000000 0.000000 0.000000 -8.634115 0.814681 -0.162615 -58.977312 -29.510932 7.989941 177.848271 -56.166078 -158.815409 0.000000 0.000000 0.000000 8.016487 -8.525602 -4.926870 56.731145 -21.024588 -16.745709 116.213962 47.611108 69.104944 0.000000 0.000000 0.000000 
0.000216 0.977295 -0.014758 -3.495014 11.164753 1.866769 -1.800569 0.692978 7.174529 5.405170 -2.828109 20.652650 -3.935172 -1.637705 9.928207 0.000000 0.000000 0.000000 0.601976 2.468090 -33.611679 5.062783 -1.876833 29.011727 -4.141075 -11.216873 9.871703 0.000000 0.000000 0.000000 4.082537 -0.439509 4.541381 4.743659 -1.890996 -3.688063 -2.704459 -16.027152 13.507401 -1.847513 1.299199 -26.193924 0.000000 0.000000 0.000000 -7.775166 1.399619 -0.265389 -60.452486 -25.898990 6.588563 -179.151684 -52.517647 -161.994803 0.000000 0.000000 0.000000 3.526481 -10.242222 -4.506088 58.437812 -24.527525 -19.470745 116.130848 44.747303 63.777763 0.000000 0.000000 0.000000 
-0.000712 0.991293 -0.015539 -2.834686 11.933631 3.627737 -1.365761 0.730419 8.221749 5.441658 -3.100432 22.274837 -6.962861 -2.331940 17.508214 0.000000 0.000000 0.000000 2.880067 2.877946 -30.927275 2.845396 -0.576813 17.788127 -2.923349 -9.377194 15.662792 0.000000 0.000000 0.000000 4.006807 -0.187252 1.185604 4.761083 -1.879500 -3.769453 -3.182297 -16.669841 13.546321 -1.379603 0.949775 -23.870471 0.000000 0.000000 0.000000 -7.212680 0.973024 -0.064447 -60.601284 -21.896601 4.366887 -171.694215 -51.589450 -176.708862 0.000000 0.000000 0.000000 2.373580 -12.514026 -5.019077 59.886187 -27.328731 -21.605366 114.092445 44.332500 61.184358 0.000000 0.000000 0.000000 
-0.002625 0.980230 -0.015672 -2.049237 11.244051 4.119892 -0.642121 0.552611 6.612673 3.572509 -3.471852 29.475788 -5.583807 -0.445946 17.626669 0.000000 0.000000 0.000000 4.888132 3.136717 -27.303204 1.238773 -0.100049 18.775083 -2.897405 -9.257279 13.976742 0.000000 0.000000 0.000000 4.455133 -0.079229 -0.517859 5.750193 -2.302584 -3.997399 -5.026989 -13.920215 14.237935 -2.241480 1.721695 -21.695909 0.000000 0.000000 0.000000 -8.176996 -1.111070 0.629889 -58.339483 -16.621093 0.913816 -165.696008 -51.590514 168.354449 0.000000 0.000000 0.000000 2.663266 -11.375378 -4.637596 62.135298 -26.842444 -21.933231 116.133287 47.604451 69.579162 0.000000 0.000000 0.000000 
-0.005651 0.945248 -0.018876 -1.457229 10.062649 2.339610 2.090304 0.184708 4.366476 -0.842859 -2.929446 40.870046 -3.594333 0.487074 13.862236 0.000000 0.000000 0.000000 5.805654 3.330256 -26.291860 0.927319 -0.109426 27.717459 -3.495265 -9.548839 5.440489 0.000000 0.000000 0.000000 4.647293 -0.065090 -0.339895 4.147087 -2.032688 0.220700 -2.994900 -12.572032 11.023828 -3.650031 2.625370 -24.734717 0.000000 0.000000 0.000000 -9.189786 3.226573 -1.399845 -57.989391 -8.696327 -2.923546 -158.118600 -52.185671 152.550165 0.000000 0.000000 0.000000 2.404013 -9.760638 -3.917623 63.203910 -20.782635 -18.901815 115.551649 51.233451 73.661207 0.000000 0.000000 0.000000 
-0.007384 0.916998 -0.027709 -1.749024 8.491984 -0.444018 4.032134 -0.192850 -1.518497 -4.094397 -2.468765 57.306066 -2.236756 0.379540 9.514987 0.000000 0.000000 0.000000 6.444598 3.170708 -22.767065 1.583561 -0.377858 32.897169 -4.301873 -10.167857 -4.000051 0.000000 0.000000 0.000000 4.605940 -0.355117 3.763977 4.223046 -1.769905 -2.844249 -2.664325 -7.753787 13.859723 -0.574908 1.523158 -24.940887 0.000000 0.000000 0.000000 -12.565523 5.797802 -3.289326 -52.967644 -0.881646 -6.740579 -148.802587 -51.045305 130.620180 0.000000 0.000000 0.000000 7.630748 -7.424089 -3.939604 61.636981 -10.137527 -12.388962 119.368173 56.807891 88.424225 0.000000 0.000000 0.000000 
-0.006898 0.911820 -0.037872 -1.537838 5.958429 -1.562039 3.778107 -0.798238 -11.779256 -7.208359 0.180857 69.967365 1.166230 4.844866 6.038785 0.000000 0.000000 0.000000 6.878360 2.596147 -17.344278 0.608193 0.334614 36.013145 -3.831663 -7.595592 -8.518488 0.000000 0.000000 0.000000 3.454539 -0.356862 4.729712 3.379984 -1.412442 -2.773837 -0.543097 -0.932556 14.738782 0.319535 1.718973 -24.047999 0.000000 0.000000 0.000000 -11.315178 7.858940 -4.743700 -53.232007 6.612918 -10.137557 -138.129279 -50.580210 108.191816 0.000000 0.000000 0.000000 5.300594 -4.216662 -1.919920 63.174420 -0.368162 -7.061444 132.187428 60.789948 113.987566 0.000000 0.000000 0.000000 
-0.004299 0.929223 -0.046709 0.153557 4.626896 -0.264713 1.614367 -2.235057 -25.218208 -8.600828 2.324170 72.499865 3.427866 9.252323 7.232743 0.000000 0.000000 0.000000 5.395589 1.194154 -8.739392 -0.366178 0.897465 30.039076 -3.822347 -7.160911 -9.556423 0.000000 0.000000 0.000000 1.856683 -0.221885 3.630456 1.379654 -0.451881 -3.840345 0.950465 4.909978 14.883587 3.514114 0.498723 -22.393606 0.000000 0.000000 0.000000 -8.939816 9.932110 -5.666264 -49.544169 13.536639 -12.188750 -135.384915 -45.704020 93.495977 0.000000 0.000000 0.000000 3.279706 -3.841646 -1.465113 66.700061 7.405701 -1.927513 138.569434 62.058322 128.640857 0.000000 0.000000 0.000000 
-0.000603 0.957238 -0.051442 1.774344 3.399755 1.409213 -1.286450 -3.695811 -32.557282 -6.716980 1.345187 60.764964 3.733700 10.299461 9.244683 0.000000 0.000000 0.000000 3.376159 -0.113252 0.304491 -1.710575 1.202632 21.218793 -1.845577 -4.525902 -0.568216 0.000000 0.000000 0.000000 0.292736 -0.094603 2.121518 -0.597908 0.444638 -5.344850 3.037968 10.991732 15.922934 5.996983 -0.391471 -20.989368 0.000000 0.000000 0.000000 -6.964259 10.181808 -5.659776 -47.123293 17.051698 -13.128389 -138.464039 -41.093330 87.789127 0.000000 0.000000 0.000000 2.310710 -2.971152 -1.015358 68.891428 12.775312 2.664288 147.859466 63.379289 147.863136 0.000000 0.000000 0.000000 
